<svg width="22" height="22" viewBox="0 0 22 22" fill="none" xmlns="http://www.w3.org/2000/svg">
<path d="M2.06274 14.9508L4.13773 13.7156C4.538 14.414 4.90241 15.0047 5.77595 15.0047C6.61298 15.0047 7.14102 14.684 7.14102 13.4289V4.90518H9.68928V13.4642C9.68928 16.0604 8.14233 17.2424 5.88547 17.2424C5.08761 17.2849 4.29537 17.0886 3.61311 16.6795C2.93085 16.2703 2.38991 15.668 2.06274 14.9508ZM11.0739 14.6815L13.1489 13.4994C13.3796 13.9599 13.7377 14.347 14.182 14.6162C14.6263 14.8855 15.1388 15.0259 15.6606 15.0214C16.7167 15.0214 17.3895 14.5019 17.3895 13.7855C17.3895 12.9261 16.6978 12.6214 15.5329 12.1179L14.8979 11.8524C13.0596 11.0828 11.8399 10.1156 11.8399 8.07415C11.8399 6.19368 13.2962 4.76152 15.5713 4.76152C16.3085 4.70895 17.0451 4.87111 17.6892 5.22777C18.3333 5.58443 18.8564 6.11979 19.1933 6.76706L17.2089 8.02092C17.0787 7.69962 16.8523 7.42483 16.5597 7.23298C16.2671 7.04113 15.9222 6.94127 15.5707 6.94664C15.4174 6.93139 15.2626 6.94774 15.1161 6.99464C14.9697 7.04155 14.8347 7.11799 14.72 7.21908C14.6052 7.32016 14.5131 7.44367 14.4496 7.58174C14.3861 7.7198 14.3525 7.86938 14.351 8.02092C14.351 8.77324 14.8243 9.07724 15.9155 9.54287L16.5524 9.8116C18.7187 10.7249 19.9377 11.6562 19.9377 13.7508C19.9377 16.0072 18.1359 17.2431 15.7154 17.2431C13.349 17.2431 11.8203 16.1322 11.0739 14.6815Z" fill="#EABD5F"/>
</svg>
